<svg width="24" height="24" viewBox="0 0 24 24" fill="none" xmlns="http://www.w3.org/2000/svg">
<path d="M20.9999 6V15.75H22.4999V6C22.5 5.60601 22.4224 5.21585 22.2717 4.85183C22.121 4.48781 21.9 4.15706 21.6214 3.87846C21.3428 3.59986 21.0121 3.37889 20.648 3.22816C20.284 3.07743 19.8939 2.9999 19.4999 3H6.18213L7.68213 4.5H19.4999C19.697 4.4996 19.8922 4.53813 20.0744 4.61338C20.2565 4.68862 20.4221 4.79909 20.5614 4.93846C20.7008 5.07782 20.8113 5.24334 20.8865 5.42551C20.9617 5.60767 21.0003 5.80291 20.9999 6Z" fill="#979797"/>
<path d="M22.5 21.4395L2.5605 1.5L1.5 2.5605L2.628 3.6885C2.27703 3.96305 1.99309 4.31382 1.79767 4.71428C1.60224 5.11474 1.50045 5.5544 1.5 6V15C1.5 15.7956 1.81607 16.5587 2.37868 17.1213C2.94129 17.6839 3.70435 18 4.5 18H9V16.5H4.5C4.30291 16.5004 4.10767 16.4619 3.92551 16.3866C3.74334 16.3114 3.57782 16.2009 3.43846 16.0615C3.29909 15.9222 3.18862 15.7567 3.11338 15.5745C3.03813 15.3923 2.9996 15.1971 3 15V6C3.00075 5.75042 3.06435 5.50505 3.18494 5.28654C3.30554 5.06803 3.47923 4.88342 3.69 4.74975L15.4387 16.5H12.75L9.75 21.75L11.052 22.5L13.6238 18H16.9387L21.4387 22.5L22.5 21.4395Z" fill="#979797"/>
</svg>
