<svg width="21" height="21" viewBox="0 0 21 21" fill="none" xmlns="http://www.w3.org/2000/svg">
<path d="M10.1036 15.9111C10.1629 15.9308 10.2024 15.9704 10.2222 16.0296C10.2419 16.0889 10.232 16.1481 10.1925 16.2074L7.73327 18.6666C7.3382 19.0617 6.88388 19.3778 6.3703 19.6148C5.85672 19.8518 5.33326 19.9901 4.79993 20.0296C4.26659 20.0691 3.73326 20.0296 3.19992 19.9111C2.66659 19.7926 2.18264 19.5457 1.74807 19.1704C1.21474 18.7555 0.799921 18.2518 0.503624 17.6592C0.207327 17.0666 0.0493022 16.4741 0.0295491 15.8815C0.00979596 15.2889 0.098685 14.6864 0.296216 14.0741C0.493747 13.4617 0.82955 12.9284 1.30363 12.4741L5.12585 8.65183C5.7382 8.03949 6.44931 7.58517 7.25919 7.28887C8.06907 6.99257 8.8987 6.91356 9.74808 7.05183C10.4987 7.17035 11.0913 7.38764 11.5259 7.70369C11.9604 8.01974 12.3061 8.38517 12.5629 8.79998C12.6024 8.89875 12.5975 8.97282 12.5481 9.0222C12.4987 9.07159 12.4444 9.11603 12.3851 9.15554C12.3259 9.19504 12.2567 9.2543 12.1777 9.33332L11.9703 9.54072C11.7728 9.75801 11.5357 9.86665 11.2592 9.86665C10.9827 9.86665 10.7308 9.75307 10.5036 9.52591C10.2765 9.29875 10.0246 9.12591 9.74808 9.00739C9.47154 8.88887 9.16537 8.83949 8.82956 8.85924C8.49376 8.87899 8.19746 8.92838 7.94067 9.00739C7.68388 9.0864 7.41722 9.26418 7.14067 9.54072L2.75548 13.9259C2.49869 14.1827 2.31103 14.479 2.19252 14.8148C2.074 15.1506 2.03449 15.4864 2.074 15.8222C2.1135 16.158 2.21227 16.4938 2.37029 16.8296C2.52832 17.1654 2.78511 17.4321 3.14067 17.6296C3.63449 17.9654 4.16783 18.0839 4.74067 17.9852C5.31351 17.8864 5.79746 17.6494 6.19252 17.2741L8.08882 15.4074C8.12833 15.3481 8.18759 15.3383 8.2666 15.3778C8.85919 15.6345 9.47154 15.8123 10.1036 15.9111ZM18.3407 0.918502C18.874 1.33332 19.2888 1.82714 19.5851 2.39998C19.8814 2.97282 20.0493 3.56542 20.0888 4.17776C20.1283 4.79011 20.0395 5.40245 19.8222 6.0148C19.6049 6.62714 19.2592 7.16048 18.7851 7.6148L14.9629 11.437C14.3506 12.0494 13.6394 12.4938 12.8296 12.7704C12.0197 13.0469 11.1802 13.1259 10.311 13.0074C9.56043 12.9086 8.97771 12.6913 8.5629 12.3555C8.14808 12.0197 7.8024 11.6543 7.52586 11.2592C7.48635 11.1802 7.49623 11.1111 7.55549 11.0518L8.08882 10.5185C8.30611 10.321 8.55302 10.2222 8.82956 10.2222C9.10611 10.2222 9.34314 10.321 9.54068 10.5185C9.77771 10.7555 10.0444 10.9333 10.3407 11.0518C10.637 11.1704 10.9431 11.2296 11.2592 11.2296C11.5752 11.2296 11.8814 11.1704 12.1777 11.0518C12.474 10.9333 12.7308 10.7555 12.9481 10.5185L17.3333 6.16295C17.5901 5.90616 17.7777 5.59998 17.8962 5.24443C18.0148 4.88887 18.0543 4.54319 18.0148 4.20739C17.9753 3.87159 17.8666 3.54566 17.6888 3.22961C17.5111 2.91356 17.2543 2.6469 16.9185 2.42961C16.4444 2.11356 15.9209 1.99505 15.3481 2.07406C14.7753 2.15307 14.2814 2.39998 13.8666 2.8148L11.9999 4.68146C11.9407 4.74072 11.8814 4.7506 11.8222 4.71109C11.2691 4.47406 10.6567 4.2864 9.98512 4.14813C9.90611 4.14813 9.8666 4.10862 9.8666 4.02961C9.8666 3.9506 9.87648 3.90122 9.89623 3.88146L12.3555 1.42221C12.7506 1.02714 13.2049 0.711095 13.7185 0.474058C14.232 0.237021 14.7456 0.0888728 15.2592 0.0296135C15.7728 -0.0296457 16.3061 0.019737 16.8592 0.177762C17.4123 0.335786 17.9061 0.5827 18.3407 0.918502Z" fill="#979797"/>
</svg>
