<svg width="24" height="24" viewBox="0 0 24 24" fill="none" xmlns="http://www.w3.org/2000/svg">
<path d="M21.2659 20.998H2.73288C2.55735 20.998 2.38491 20.9518 2.23289 20.864C2.08088 20.7762 1.95464 20.65 1.86688 20.498C1.77911 20.346 1.73291 20.1735 1.73291 19.998C1.73291 19.8224 1.77912 19.65 1.86688 19.498L11.1329 3.49798C11.2208 3.34644 11.347 3.22066 11.4988 3.13322C11.6506 3.04578 11.8227 2.99976 11.9979 2.99976C12.1731 2.99976 12.3452 3.04578 12.497 3.13322C12.6488 3.22066 12.775 3.34644 12.8629 3.49798L22.1299 19.498C22.2176 19.6499 22.2638 19.8223 22.2639 19.9977C22.2639 20.1732 22.2178 20.3456 22.1301 20.4975C22.0425 20.6495 21.9164 20.7758 21.7645 20.8636C21.6126 20.9515 21.4403 20.9978 21.2649 20.998H21.2659ZM11.9999 5.99798L4.46888 18.998H19.5329L11.9999 5.99798ZM12.9949 14.999H10.9949V9.99798H12.9949V14.999Z" fill="#979797"/>
<path d="M11 16H13V18H11V16Z" fill="#979797"/>
</svg>
