<svg width="24" height="24" viewBox="0 0 24 24" fill="none" xmlns="http://www.w3.org/2000/svg">
<path d="M16.5 3V4.5H19.9395L15 9.4395L16.0605 10.5L21 5.5605V9H22.5V3H16.5Z" fill="#979797"/>
<path d="M21 12V15C21.0004 15.1971 20.9619 15.3923 20.8866 15.5745C20.8114 15.7567 20.7009 15.9222 20.5615 16.0615C20.4222 16.2009 20.2567 16.3114 20.0745 16.3866C19.8923 16.4619 19.6971 16.5004 19.5 16.5H15L12 21.75L13.302 22.5L15.8738 18H19.5C20.2956 18 21.0587 17.6839 21.6213 17.1213C22.1839 16.5587 22.5 15.7956 22.5 15V12H21Z" fill="#979797"/>
<path d="M3 15V6C2.9996 5.80291 3.03813 5.60767 3.11338 5.42551C3.18862 5.24334 3.29909 5.07783 3.43846 4.93846C3.57783 4.79909 3.74334 4.68862 3.92551 4.61338C4.10767 4.53813 4.30291 4.4996 4.5 4.5H13.5V3H4.5C4.10601 2.9999 3.71585 3.07743 3.35183 3.22816C2.98781 3.37889 2.65706 3.59986 2.37846 3.87846C2.09986 4.15706 1.87889 4.48781 1.72816 4.85183C1.57743 5.21585 1.4999 5.60601 1.5 6V15C1.5 15.7956 1.81607 16.5587 2.37868 17.1213C2.94129 17.6839 3.70435 18 4.5 18H11.25V16.5H4.5C4.30291 16.5004 4.10767 16.4619 3.92551 16.3866C3.74334 16.3114 3.57783 16.2009 3.43846 16.0615C3.29909 15.9222 3.18862 15.7567 3.11338 15.5745C3.03813 15.3923 2.9996 15.1971 3 15Z" fill="#979797"/>
</svg>
