<svg width="29" height="29" viewBox="0 0 29 29" fill="none" xmlns="http://www.w3.org/2000/svg">
<path d="M6.34359 21.75C5.30206 21.75 4.30319 21.3363 3.56672 20.5998C2.83025 19.8633 2.4165 18.8644 2.4165 17.8229V7.55208C2.4165 6.51056 2.83025 5.51169 3.56672 4.77522C4.30319 4.03874 5.30206 3.625 6.34359 3.625H22.6561C23.1718 3.625 23.6825 3.72658 24.1589 3.92393C24.6354 4.12129 25.0683 4.41055 25.433 4.77522C25.7976 5.13988 26.0869 5.5728 26.2842 6.04925C26.4816 6.52571 26.5832 7.03637 26.5832 7.55208V17.8229C26.5832 18.3386 26.4816 18.8493 26.2842 19.3257C26.0869 19.8022 25.7976 20.2351 25.433 20.5998C25.0683 20.9644 24.6354 21.2537 24.1589 21.4511C23.6825 21.6484 23.1718 21.75 22.6561 21.75H15.7227L9.6665 26.2813C9.4421 26.4492 9.17538 26.5514 8.8962 26.5764C8.61702 26.6014 8.33639 26.5482 8.08571 26.4228C7.83503 26.2974 7.62419 26.1047 7.47678 25.8663C7.32938 25.6279 7.25121 25.3532 7.25105 25.0729V21.75H6.3448H6.34359ZM15.1209 19.9375H22.6561C23.2169 19.9375 23.7548 19.7147 24.1513 19.3182C24.5479 18.9216 24.7707 18.3837 24.7707 17.8229V7.55208C24.7707 6.99126 24.5479 6.45341 24.1513 6.05685C23.7548 5.66029 23.2169 5.4375 22.6561 5.4375H6.34359C5.78276 5.4375 5.24491 5.66029 4.84835 6.05685C4.45179 6.45341 4.229 6.99126 4.229 7.55208V17.8229C4.229 18.9902 5.17634 19.9375 6.34359 19.9375H9.06113V24.4688L15.1209 19.9375Z" fill="#979797"/>
</svg>
