<svg width="24" height="24" viewBox="0 0 24 24" fill="none" xmlns="http://www.w3.org/2000/svg">
<path d="M10.4999 3.75C10.4999 4.74456 10.1048 5.69839 9.40158 6.40165C8.69832 7.10491 7.74449 7.5 6.74993 7.5C5.75537 7.5 4.80154 7.10491 4.09828 6.40165C3.39502 5.69839 2.99993 4.74456 2.99993 3.75C2.99993 2.75544 3.39502 1.80161 4.09828 1.09835C4.80154 0.395088 5.75537 0 6.74993 0C7.74449 0 8.69832 0.395088 9.40158 1.09835C10.1048 1.80161 10.4999 2.75544 10.4999 3.75V3.75ZM16.8374 9.8295C16.6968 9.75904 16.5375 9.73459 16.3822 9.75963C16.2269 9.78466 16.0833 9.85791 15.9719 9.969L10.4069 17.034L6.41693 12.876C6.27287 12.7801 6.10007 12.737 5.92784 12.7539C5.7556 12.7709 5.59453 12.8468 5.47193 12.969L0.00292969 19.5V22.5C0.00292969 22.8978 0.160965 23.2794 0.44227 23.5607C0.723574 23.842 1.10511 24 1.50293 24H22.5029C22.6999 24 22.895 23.9612 23.077 23.8858C23.2589 23.8104 23.4243 23.6999 23.5636 23.5607C23.7029 23.4214 23.8134 23.256 23.8888 23.074C23.9641 22.892 24.0029 22.697 24.0029 22.5V15.75L16.8374 9.8295V9.8295Z" fill="#979797"/>
</svg>
