<svg width="29" height="29" viewBox="0 0 29 29" fill="none" xmlns="http://www.w3.org/2000/svg">
<path d="M25.089 15.1146C25.5647 14.4859 25.8281 13.7156 25.8281 12.9141C25.8281 11.6425 25.1173 10.4389 23.9731 9.76772C23.6786 9.59495 23.3432 9.50403 23.0018 9.50434H16.2105L16.3805 6.02378C16.4201 5.18266 16.1228 4.38403 15.545 3.77514C15.2615 3.47503 14.9194 3.23624 14.54 3.07355C14.1605 2.91086 13.7517 2.82771 13.3389 2.82924C11.8662 2.82924 10.5635 3.82046 10.1727 5.2393L7.73994 14.0469H4.07812C3.57686 14.0469 3.17188 14.4519 3.17188 14.9532V25.2618C3.17188 25.763 3.57686 26.168 4.07812 26.168H21.1071C21.3677 26.168 21.6226 26.117 21.8576 26.0151C23.2057 25.4402 24.0751 24.1233 24.0751 22.662C24.0751 22.3051 24.0241 21.954 23.9222 21.6141C24.3979 20.9854 24.6613 20.2151 24.6613 19.4136C24.6613 19.0568 24.6104 18.7056 24.5084 18.3658C24.9842 17.7371 25.2476 16.9667 25.2476 16.1653C25.2419 15.8084 25.1909 15.4544 25.089 15.1146V15.1146ZM5.21094 24.129V16.086H7.50488V24.129H5.21094ZM23.234 14.1319L22.6138 14.67L23.0074 15.3893C23.1371 15.6263 23.2044 15.8923 23.2028 16.1624C23.2028 16.6297 22.9989 17.0744 22.6478 17.3802L22.0275 17.9183L22.4212 18.6376C22.5509 18.8746 22.6181 19.1407 22.6166 19.4108C22.6166 19.8781 22.4127 20.3227 22.0615 20.6286L21.4413 21.1666L21.835 21.886C21.9647 22.1229 22.0319 22.389 22.0304 22.6591C22.0304 23.2935 21.6565 23.8656 21.0788 24.1261H9.31738V15.9954L12.1353 5.78589C12.2079 5.52421 12.3639 5.29334 12.5796 5.12828C12.7952 4.96321 13.0588 4.87294 13.3304 4.87114C13.5456 4.87114 13.758 4.93344 13.9279 5.06089C14.2083 5.27046 14.3584 5.58764 14.3414 5.92465L14.0695 11.5434H22.9734C23.4775 11.8521 23.7891 12.3732 23.7891 12.9141C23.7891 13.3814 23.5852 13.8232 23.234 14.1319Z" fill="#979797"/>
</svg>
