<svg width="24" height="24" viewBox="0 0 24 24" fill="none" xmlns="http://www.w3.org/2000/svg">
<path fill-rule="evenodd" clip-rule="evenodd" d="M16.4415 18.5475C16.8693 18.0916 17.1432 17.5129 17.2245 16.893L21.8895 18.966C22.1178 19.0677 22.368 19.1108 22.6172 19.0913C22.8664 19.0717 23.1068 18.9902 23.3165 18.8542C23.5262 18.7181 23.6986 18.5318 23.8179 18.3121C23.9373 18.0925 23.9999 17.8465 24 17.5965V6.4035C23.9998 6.15372 23.9372 5.90794 23.8179 5.68848C23.6986 5.46901 23.5264 5.28281 23.3169 5.14678C23.1074 5.01074 22.8673 4.92918 22.6183 4.90948C22.3693 4.88979 22.1193 4.93259 21.891 5.034L17.2245 7.107C17.1292 6.38563 16.7749 5.7235 16.2277 5.24389C15.6805 4.76429 14.9776 4.49992 14.25 4.5H6.408L7.479 6H14.25C14.6478 6 15.0294 6.15804 15.3107 6.43934C15.592 6.72065 15.75 7.10218 15.75 7.5V16.5C15.7503 16.7739 15.6756 17.0426 15.534 17.277L16.4415 18.5475ZM2.142 6.27C1.94376 6.40809 1.78185 6.59205 1.67007 6.80622C1.55828 7.02039 1.49994 7.25841 1.5 7.5V16.5C1.5 16.8978 1.65804 17.2794 1.93934 17.5607C2.22064 17.842 2.60218 18 3 18H10.521L11.592 19.5H3C2.20435 19.5 1.44129 19.1839 0.87868 18.6213C0.316071 18.0587 0 17.2957 0 16.5V7.5C0 6.4875 0.501 5.592 1.2705 5.049L2.1405 6.27H2.142ZM22.5 17.595L17.25 15.2625V8.7375L22.5 6.4035V17.5965V17.595ZM15.8895 22.935L0.8895 1.935L2.1105 1.065L17.1105 22.065L15.8895 22.935Z" fill="#979797"/>
</svg>
