<svg width="29" height="29" viewBox="0 0 29 29" fill="none" xmlns="http://www.w3.org/2000/svg">
<path d="M20.8435 18.1249C20.1652 18.1284 19.4963 18.284 18.8861 18.5805C18.276 18.8769 17.7402 19.3066 17.3182 19.8378L10.6935 15.6962C10.935 14.917 10.935 14.0829 10.6935 13.3037L17.3182 9.16213C17.9906 9.99471 18.936 10.5624 19.9869 10.7647C21.0378 10.9671 22.1264 10.7909 23.0598 10.2674C23.9932 9.74396 24.7113 8.90701 25.0867 7.90484C25.4621 6.90267 25.4708 5.79996 25.111 4.79204C24.7513 3.78412 24.0464 2.93606 23.1213 2.39809C22.1961 1.86011 21.1104 1.66694 20.0565 1.8528C19.0026 2.03866 18.0484 2.59155 17.3631 3.41353C16.6778 4.23551 16.3056 5.27352 16.3123 6.34369C16.3166 6.74895 16.3776 7.15161 16.4935 7.53994L9.86885 11.6815C9.284 10.9452 8.48459 10.4092 7.58143 10.1476C6.67827 9.88599 5.7161 9.91184 4.8283 10.2215C3.94049 10.5313 3.17102 11.1095 2.62654 11.8761C2.08206 12.6427 1.78955 13.5597 1.78955 14.4999C1.78955 15.4402 2.08206 16.3572 2.62654 17.1238C3.17102 17.8904 3.94049 18.4686 4.8283 18.7783C5.7161 19.088 6.67827 19.1139 7.58143 18.8523C8.48459 18.5907 9.284 18.0546 9.86885 17.3184L16.4935 21.4599C16.3776 21.8483 16.3166 22.2509 16.3123 22.6562C16.3123 23.5524 16.578 24.4285 17.0759 25.1736C17.5738 25.9188 18.2815 26.4996 19.1095 26.8425C19.9375 27.1855 20.8486 27.2752 21.7275 27.1004C22.6065 26.9255 23.4139 26.494 24.0476 25.8603C24.6813 25.2266 25.1129 24.4192 25.2877 23.5402C25.4626 22.6612 25.3728 21.7501 25.0299 20.9222C24.6869 20.0942 24.1061 19.3865 23.361 18.8886C22.6158 18.3907 21.7397 18.1249 20.8435 18.1249V18.1249ZM20.8435 3.62494C21.3813 3.62494 21.9069 3.78439 22.354 4.08313C22.8011 4.38187 23.1496 4.80648 23.3553 5.30327C23.5611 5.80006 23.6149 6.34671 23.51 6.87409C23.4051 7.40148 23.1462 7.88591 22.766 8.26614C22.3858 8.64636 21.9013 8.9053 21.3739 9.0102C20.8466 9.1151 20.2999 9.06126 19.8031 8.85549C19.3063 8.64971 18.8817 8.30124 18.583 7.85415C18.2842 7.40705 18.1248 6.88141 18.1248 6.34369C18.1248 5.62263 18.4112 4.93111 18.9211 4.42124C19.431 3.91138 20.1225 3.62494 20.8435 3.62494V3.62494ZM6.34354 17.2187C5.80582 17.2187 5.28017 17.0592 4.83308 16.7605C4.38598 16.4618 4.03751 16.0371 3.83174 15.5404C3.62596 15.0436 3.57212 14.4969 3.67703 13.9695C3.78193 13.4422 4.04086 12.9577 4.42109 12.5775C4.80131 12.1973 5.28575 11.9383 5.81313 11.8334C6.34052 11.7285 6.88717 11.7824 7.38396 11.9881C7.88074 12.1939 8.30535 12.5424 8.60409 12.9895C8.90283 13.4366 9.06229 13.9622 9.06229 14.4999C9.06229 15.221 8.77585 15.9125 8.26598 16.4224C7.75612 16.9323 7.06459 17.2187 6.34354 17.2187ZM20.8435 25.3749C20.3058 25.3749 19.7802 25.2155 19.3331 24.9167C18.886 24.618 18.5375 24.1934 18.3317 23.6966C18.126 23.1998 18.0721 22.6532 18.177 22.1258C18.2819 21.5984 18.5409 21.114 18.9211 20.7337C19.3013 20.3535 19.7857 20.0946 20.3131 19.9897C20.8405 19.8848 21.3872 19.9386 21.884 20.1444C22.3807 20.3502 22.8054 20.6986 23.1041 21.1457C23.4028 21.5928 23.5623 22.1185 23.5623 22.6562C23.5623 23.3772 23.2758 24.0688 22.766 24.5786C22.2561 25.0885 21.5646 25.3749 20.8435 25.3749V25.3749Z" fill="#979797"/>
</svg>
