<svg width="54" height="24" viewBox="0 0 54 24" fill="none" xmlns="http://www.w3.org/2000/svg">
<path d="M12 15C11.2044 15 10.4413 14.6839 9.87868 14.1213C9.31607 13.5587 9 12.7956 9 12C9 11.2044 9.31607 10.4413 9.87868 9.87868C10.4413 9.31607 11.2044 9 12 9C12.7956 9 13.5587 9.31607 14.1213 9.87868C14.6839 10.4413 15 11.2044 15 12C15 12.7956 14.6839 13.5587 14.1213 14.1213C13.5587 14.6839 12.7956 15 12 15Z" fill="#979797"/>
<path d="M27 15C26.2044 15 25.4413 14.6839 24.8787 14.1213C24.3161 13.5587 24 12.7956 24 12C24 11.2044 24.3161 10.4413 24.8787 9.87868C25.4413 9.31607 26.2044 9 27 9C27.7956 9 28.5587 9.31607 29.1213 9.87868C29.6839 10.4413 30 11.2044 30 12C30 12.7956 29.6839 13.5587 29.1213 14.1213C28.5587 14.6839 27.7956 15 27 15Z" fill="#979797"/>
<path d="M42 15C41.2044 15 40.4413 14.6839 39.8787 14.1213C39.3161 13.5587 39 12.7956 39 12C39 11.2044 39.3161 10.4413 39.8787 9.87868C40.4413 9.31607 41.2044 9 42 9C42.7956 9 43.5587 9.31607 44.1213 9.87868C44.6839 10.4413 45 11.2044 45 12C45 12.7956 44.6839 13.5587 44.1213 14.1213C43.5587 14.6839 42.7956 15 42 15Z" fill="#979797"/>
</svg>
